HIERARCHY
ROOT hip
{
  OFFSET 5.51535 103.731 -2.80141
  CHANNELS 6 Xposition Yposition Zposition Zrotation Xrotation Yrotation
  JOINT abdomen
  {
    OFFSET 0 -1.186 -1.5018
    CHANNELS 6 Xposition Yposition Zposition Zrotation Xrotation Yrotation
    JOINT abdomen2
    {
      OFFSET 0 9.964 0.2134
      CHANNELS 6 Xposition Yposition Zposition Zrotation Xrotation Yrotation
      JOINT chest
      {
        OFFSET 0 13.134 -3.2573
        CHANNELS 6 Xposition Yposition Zposition Zrotation Xrotation Yrotation
        JOINT neck
        {
          OFFSET 0 20.686 -1.6905
          CHANNELS 6 Xposition Yposition Zposition Zrotation Xrotation Yrotation
          JOINT head
          {
            OFFSET 0 7.23801 -0.1237
            CHANNELS 6 Xposition Yposition Zposition Zrotation Xrotation Yrotation
            End Site
            {
              OFFSET 0 0 0
            }
          }
        }
        JOINT lCollar
        {
          OFFSET 1.7069 20.075 5.0056
          CHANNELS 6 Xposition Yposition Zposition Zrotation Xrotation Yrotation
          JOINT lShldr
          {
            OFFSET 13.6458 -0.0470195 -4.849
            CHANNELS 6 Xposition Yposition Zposition Zrotation Xrotation Yrotation
            JOINT lForeArm
            {
              OFFSET 28.3255 -0.97589 2.2888
              CHANNELS 6 Xposition Yposition Zposition Zrotation Xrotation Yrotation
              JOINT lHand
              {
                OFFSET 22.1583 -0.529998 10.8316
                CHANNELS 6 Xposition Yposition Zposition Zrotation Xrotation Yrotation
                JOINT lThumb1
                {
                  OFFSET 0.786 0.111997 2.5817
                  CHANNELS 6 Xposition Yposition Zposition Zrotation Xrotation Yrotation
                  JOINT lThumb2
                  {
                    OFFSET 0.360097 -0.877999 4.2331
                    CHANNELS 6 Xposition Yposition Zposition Zrotation Xrotation Yrotation
                    JOINT lThumb2_End
                    {
                      OFFSET 1.8127 -1.21601 2.2227
                      CHANNELS 6 Xposition Yposition Zposition Zrotation Xrotation Yrotation
                      End Site
                      {
                        OFFSET 0.0180981 -0.012195 0.0222007
                      }
                    }
                  }
                }
                JOINT lCarpal1
                {
                  OFFSET 0.9571 1.114 1.7695
                  CHANNELS 6 Xposition Yposition Zposition Zrotation Xrotation Yrotation
                  JOINT lIndex1
                  {
                    OFFSET 4.12461 0.486992 4.1451
                    CHANNELS 6 Xposition Yposition Zposition Zrotation Xrotation Yrotation
                    JOINT lIndex2
                    {
                      OFFSET 3.4052 -1.45401 2.7682
                      CHANNELS 6 Xposition Yposition Zposition Zrotation Xrotation Yrotation
                      JOINT lIndex2_End
                      {
                        OFFSET 1.45309 -1.79499 1.2713
                        CHANNELS 6 Xposition Yposition Zposition Zrotation Xrotation Yrotation
                        End Site
                        {
                          OFFSET 0.0144979 -0.0179083 0.0126995
                        }
                      }
                    }
                  }
                  JOINT lMid1
                  {
                    OFFSET 5.6954 0.209987 2.1184
                    CHANNELS 6 Xposition Yposition Zposition Zrotation Xrotation Yrotation
                    JOINT lMid2
                    {
                      OFFSET 3.9766 -1.53999 2.3863
                      CHANNELS 6 Xposition Yposition Zposition Zrotation Xrotation Yrotation
                      JOINT lMid2_End
                      {
                        OFFSET 1.4042 -1.926 1.125
                        CHANNELS 6 Xposition Yposition Zposition Zrotation Xrotation Yrotation
                        End Site
                        {
                          OFFSET 0.013999 -0.0193044 0.011301
                        }
                      }
                    }
                  }
                }
                JOINT lCarpal2
                {
                  OFFSET 2.0956 0.66 -0.3894
                  CHANNELS 6 Xposition Yposition Zposition Zrotation Xrotation Yrotation
                  JOINT lRing1
                  {
                    OFFSET 5.0395 -0.090013 2.4971
                    CHANNELS 6 Xposition Yposition Zposition Zrotation Xrotation Yrotation
                    JOINT lRing2
                    {
                      OFFSET 3.7921 -1.55199 1.4806
                      CHANNELS 6 Xposition Yposition Zposition Zrotation Xrotation Yrotation
                      JOINT lRing2_End
                      {
                        OFFSET 1.4655 -1.808 0.9609
                        CHANNELS 6 Xposition Yposition Zposition Zrotation Xrotation Yrotation
                        End Site
                        {
                          OFFSET 0.0147015 -0.0181014 0.00959957
                        }
                      }
                    }
                  }
                  JOINT lPinky1
                  {
                    OFFSET 4.9141 -1.269 0.3591
                    CHANNELS 6 Xposition Yposition Zposition Zrotation Xrotation Yrotation
                    JOINT lPinky2
                    {
                      OFFSET 3.1477 -1.685 0.8462
                      CHANNELS 6 Xposition Yposition Zposition Zrotation Xrotation Yrotation
                      JOINT lPinky2_End
                      {
                        OFFSET 0.805498 -1.58501 0.795499
                        CHANNELS 6 Xposition Yposition Zposition Zrotation Xrotation Yrotation
                        End Site
                        {
                          OFFSET 0.00809703 -0.0157944 0.00799848
                        }
                      }
                    }
                  }
                }
              }
            }
          }
        }
        JOINT rCollar
        {
          OFFSET -1.7069 20.075 5.0056
          CHANNELS 6 Xposition Yposition Zposition Zrotation Xrotation Yrotation
          JOINT rShldr
          {
            OFFSET -13.6458 -0.0470107 -4.849
            CHANNELS 6 Xposition Yposition Zposition Zrotation Xrotation Yrotation
            JOINT rForeArm
            {
              OFFSET -28.3255 -0.975895 2.2888
              CHANNELS 6 Xposition Yposition Zposition Zrotation Xrotation Yrotation
              JOINT rHand
              {
                OFFSET -22.1583 -0.530007 10.8316
                CHANNELS 6 Xposition Yposition Zposition Zrotation Xrotation Yrotation
                JOINT rThumb1
                {
                  OFFSET -0.785997 0.112005 2.5817
                  CHANNELS 6 Xposition Yposition Zposition Zrotation Xrotation Yrotation
                  JOINT rThumb2
                  {
                    OFFSET -0.360106 -0.877994 4.2331
                    CHANNELS 6 Xposition Yposition Zposition Zrotation Xrotation Yrotation
                    JOINT rThumb2_End
                    {
                      OFFSET -1.8127 -1.216 2.2227
                      CHANNELS 6 Xposition Yposition Zposition Zrotation Xrotation Yrotation
                      End Site
                      {
                        OFFSET -0.0180972 -0.0121973 0.0222005
                      }
                    }
                  }
                }
                JOINT rCarpal1
                {
                  OFFSET -0.9571 1.114 1.7695
                  CHANNELS 6 Xposition Yposition Zposition Zrotation Xrotation Yrotation
                  JOINT rIndex1
                  {
                    OFFSET -4.1246 0.487011 4.1451
                    CHANNELS 6 Xposition Yposition Zposition Zrotation Xrotation Yrotation
                    JOINT rIndex2
                    {
                      OFFSET -3.4052 -1.45401 2.7682
                      CHANNELS 6 Xposition Yposition Zposition Zrotation Xrotation Yrotation
                      JOINT rIndex2_End
                      {
                        OFFSET -1.4531 -1.795 1.2713
                        CHANNELS 6 Xposition Yposition Zposition Zrotation Xrotation Yrotation
                        End Site
                        {
                          OFFSET -0.0145077 -0.0180048 0.0127017
                        }
                      }
                    }
                  }
                  JOINT rMid1
                  {
                    OFFSET -5.6954 0.210002 2.1184
                    CHANNELS 6 Xposition Yposition Zposition Zrotation Xrotation Yrotation
                    JOINT rMid2
                    {
                      OFFSET -3.9766 -1.54 2.3863
                      CHANNELS 6 Xposition Yposition Zposition Zrotation Xrotation Yrotation
                      JOINT rMid2_End
                      {
                        OFFSET -1.4042 -1.926 1.125
                        CHANNELS 6 Xposition Yposition Zposition Zrotation Xrotation Yrotation
                        End Site
                        {
                          OFFSET -0.0139948 -0.0192916 0.0112994
                        }
                      }
                    }
                  }
                }
                JOINT rCarpal2
                {
                  OFFSET -2.0956 0.66 -0.3894
                  CHANNELS 6 Xposition Yposition Zposition Zrotation Xrotation Yrotation
                  JOINT rRing1
                  {
                    OFFSET -5.03951 -0.0899879 2.4971
                    CHANNELS 6 Xposition Yposition Zposition Zrotation Xrotation Yrotation
                    JOINT rRing2
                    {
                      OFFSET -3.7921 -1.55201 1.4806
                      CHANNELS 6 Xposition Yposition Zposition Zrotation Xrotation Yrotation
                      JOINT rRing2_End
                      {
                        OFFSET -1.4655 -1.808 0.960901
                        CHANNELS 6 Xposition Yposition Zposition Zrotation Xrotation Yrotation
                        End Site
                        {
                          OFFSET -0.0146934 -0.0180999 0.00959832
                        }
                      }
                    }
                  }
                  JOINT rPinky1
                  {
                    OFFSET -4.91411 -1.26899 0.359202
                    CHANNELS 6 Xposition Yposition Zposition Zrotation Xrotation Yrotation
                    JOINT rPinky2
                    {
                      OFFSET -3.14769 -1.68501 0.846199
                      CHANNELS 6 Xposition Yposition Zposition Zrotation Xrotation Yrotation
                      JOINT rPinky2_End
                      {
                        OFFSET -0.805498 -1.585 0.7955
                        CHANNELS 6 Xposition Yposition Zposition Zrotation Xrotation Yrotation
                        End Site
                        {
                          OFFSET -0.00810035 -0.0158035 0.00800029
                        }
                      }
                    }
                  }
                }
              }
            }
          }
        }
      }
    }
  }
  JOINT lThigh
  {
    OFFSET 8.367 -8.2066 0.5982
    CHANNELS 6 Xposition Yposition Zposition Zrotation Xrotation Yrotation
    JOINT lShin
    {
      OFFSET 2.1923 -43.463 -0.4932
      CHANNELS 6 Xposition Yposition Zposition Zrotation Xrotation Yrotation
      JOINT lFoot
      {
        OFFSET 0.733301 -45.8593 -2.6451
        CHANNELS 6 Xposition Yposition Zposition Zrotation Xrotation Yrotation
        End Site
        {
          OFFSET 2.6618 -4.2699 12.3931
        }
      }
    }
  }
  JOINT rThigh
  {
    OFFSET -8.367 -8.2066 0.5982
    CHANNELS 6 Xposition Yposition Zposition Zrotation Xrotation Yrotation
    JOINT rShin
    {
      OFFSET -2.1923 -43.463 -0.4931
      CHANNELS 6 Xposition Yposition Zposition Zrotation Xrotation Yrotation
      JOINT rFoot
      {
        OFFSET -0.733299 -45.8593 -2.6451
        CHANNELS 6 Xposition Yposition Zposition Zrotation Xrotation Yrotation
        End Site
        {
          OFFSET -2.6618 -4.2699 12.3931
        }
      }
    }
  }
}
MOTION
Frames:	4
Frame Time:	0.0333333
5.51476 103.723 -2.80625 -2.04906e-005 -3.41509e-006 -6.10667e-013 -5.26916e-008 -1.186 -1.5018 0.461274 -0.00366686 0.08875 -2.24522e-007 9.964 0.2134 0.922554 -0.00661911 0.177527 6.62185e-008 13.134 -3.2573 0.922554 -0.00661911 0.177527 1.26404e-007 20.686 -1.6905 0.000194901 -3.83015e-006 4.68879e-005 -3.40356e-006 7.23801 -0.1237 -9.34886e-006 -5.2026e-006 -5.84425e-006 1.7069 20.075 5.0056 0.000222906 -7.02185e-006 4.28083e-005 13.6458 -0.0470054 -4.849 -75.1806 5.0294 4.07328 28.3255 -0.975892 2.2888 -9.72093 1.32617 -21.5967 22.1583 -0.529983 10.8316 -0.000771826 0.000458983 0.000650731 0.786003 0.111997 2.5817 5.86041e-005 4.1455e-005 2.93494e-006 0.360098 -0.877999 4.2331 2.94858e-006 8.11955e-006 1.00683e-005 1.8127 -1.21601 2.2227 -2.07368e-005 1.67163e-005 -2.66504e-005 0.9571 1.114 1.7695 1.59028e-015 -7.95139e-016 -3.18055e-015 4.12461 0.486992 4.1451 1.24693e-005 -3.58392e-006 -2.33994e-005 3.4052 -1.45401 2.7682 4.06068e-006 -1.14061e-006 1.53782e-005 1.4531 -1.79499 1.2713 -4.82155e-005 -7.86529e-006 6.04884e-007 5.69541 0.209988 2.1184 -2.73155e-006 -1.0293e-005 4.25439e-006 3.9766 -1.53999 2.3863 -3.9421e-005 -9.76504e-006 2.76074e-005 1.4042 -1.926 1.125 5.89998e-005 -6.33265e-006 -7.78679e-005 2.0956 0.66 -0.3894 1.59028e-015 -7.95139e-016 -3.18055e-015 5.0395 -0.0900114 2.4971 -7.97569e-006 3.25636e-005 -3.03201e-005 3.7921 -1.55199 1.4806 6.0823e-005 -2.99015e-005 5.77309e-005 1.4655 -1.808 0.9609 -1.59349e-005 1.89199e-005 -2.59535e-005 4.9141 -1.269 0.3591 -2.01499e-005 7.57979e-006 1.81654e-006 3.1477 -1.685 0.8462 -1.20562e-006 -1.29856e-005 -3.25031e-005 0.805497 -1.58501 0.7955 -3.28761e-005 -1.24275e-005 5.86952e-006 -1.7069 20.075 5.0056 0.000233141 -9.46269e-006 5.06204e-005 -13.6458 -0.0470118 -4.849 74.2047 -5.3803 -9.01009 -28.3255 -0.975891 2.2888 3.52934 1.27561 14.8464 -22.1583 -0.529999 10.8316 0.00075707 0.000433545 -0.000763231 -0.786004 0.112004 2.5817 0.000111501 6.86381e-006 -5.40678e-006 -0.360106 -0.877993 4.2331 -5.74829e-005 2.14423e-006 7.04106e-006 -1.8127 -1.216 2.2227 6.70736e-005 2.87756e-006 -3.87405e-005 -0.9571 1.114 1.7695 -9.93923e-017 0 -0 -4.12461 0.487012 4.1451 5.23898e-005 -7.41708e-006 -1.79458e-005 -3.4052 -1.45401 2.7682 -2.17103e-007 -2.19002e-006 -2.61068e-006 -1.45309 -1.795 1.2713 -4.3127e-005 -1.11725e-005 1.24469e-005 -5.69541 0.210001 2.1184 9.07354e-006 -8.85513e-006 -2.24568e-006 -3.9766 -1.54 2.3863 -6.135e-005 1.36955e-005 4.26219e-006 -1.4042 -1.926 1.125 -2.47017e-005 -3.04189e-006 -7.84596e-008 -2.0956 0.66 -0.3894 -9.93923e-017 0 -0 -5.03951 -0.0899879 2.4971 1.87218e-005 -7.45619e-006 -4.19753e-006 -3.7921 -1.55201 1.4806 6.5899e-007 1.67931e-005 -2.99541e-005 -1.4655 -1.808 0.960901 1.92406e-005 -6.42528e-006 3.10978e-005 -4.91411 -1.26899 0.359202 4.41712e-005 1.99665e-005 -2.01235e-005 -3.1477 -1.68501 0.846198 -1.09047e-005 -1.60547e-005 -1.02169e-005 -0.805501 -1.585 0.7955 -2.86936e-005 3.28802e-006 1.52268e-006 8.367 -8.2066 0.5982 -2.34356 -1.83349 0.0128015 2.1923 -43.4631 -0.493201 0.0103048 3.33207 0.175018 0.733301 -45.8594 -2.6451 2.32934 -1.50496 -0.128018 -8.367 -8.20659 0.5982 -4.35756 1.58556 0.156308 -2.1923 -43.463 -0.4931 0.009134 -0.269347 0.123487 -0.733299 -45.8593 -2.6451 4.34243 -1.33377 -0.17891 
5.57443 103.734 -2.83703 0.0631028 -0.036546 0.868267 -2.32378e-007 -1.186 -1.5018 0.394878 0.000972818 0.155011 2.65328e-008 9.964 0.2134 0.789753 0.00301915 0.310011 -6.24103e-008 13.134 -3.2573 0.789753 0.00301914 0.310011 2.05485e-006 20.6863 -1.69052 0.0594892 -0.222767 -0.877508 -2.21867e-007 7.238 -0.1237 0.307305 -0.0388066 -0.436783 1.7069 20.075 5.0056 0.375919 -0.00111526 -0.0422308 13.6458 -0.0470173 -4.849 -75.4432 5.04202 4.68773 28.3255 -0.975897 2.2888 -9.42178 1.72254 -20.3299 22.1583 -0.530003 10.8316 0.266685 1.2038 0.790634 0.786004 0.111997 2.5817 4.9474e-005 3.3117e-005 5.4745e-006 0.3601 -0.878 4.2331 -1.69014e-006 1.22512e-005 4.0192e-006 1.81269 -1.21601 2.2227 -4.43339e-005 1.55849e-005 -2.10654e-005 0.9571 1.114 1.7695 7.95139e-016 -7.95139e-016 1.59028e-015 4.1246 0.486993 4.1451 -7.69406e-006 -1.04893e-005 -1.55335e-005 3.4052 -1.454 2.7682 -2.66931e-007 3.03884e-007 4.77892e-006 1.4531 -1.79499 1.2713 -3.75865e-005 -1.0452e-005 -5.60867e-007 5.6954 0.209989 2.1184 -1.35777e-005 -1.04139e-005 -8.94442e-007 3.9766 -1.53999 2.3863 -4.45e-005 -9.72037e-006 3.38293e-005 1.4042 -1.926 1.125 6.39519e-005 -8.04707e-006 -7.06334e-005 2.0956 0.66 -0.3894 7.95139e-016 -7.95139e-016 1.59028e-015 5.03951 -0.0900127 2.4971 -6.73619e-006 2.86058e-005 -2.72654e-005 3.7921 -1.55199 1.4806 7.79779e-005 -2.7405e-005 5.26809e-005 1.4655 -1.808 0.960901 -3.6453e-006 -7.30609e-007 -1.7003e-005 4.91411 -1.269 0.359099 -1.98555e-005 9.08526e-006 -1.6953e-006 3.1477 -1.685 0.846201 3.56514e-006 -1.90329e-005 -2.57798e-005 0.805499 -1.58501 0.795499 -1.38912e-005 -8.50781e-006 7.83696e-007 -1.7069 20.075 5.0056 -0.0656312 0.00147745 -0.13909 -13.6458 -0.0470167 -4.849 73.1062 -5.72101 -8.3202 -28.3255 -0.97589 2.2888 2.51694 0.757655 12.2744 -22.1583 -0.530003 10.8316 0.464674 6.35507 -0.931647 -0.786003 0.112005 2.5817 0.000107384 -2.24766e-005 -1.44827e-005 -0.360104 -0.877992 4.2331 -4.47557e-005 8.62082e-006 1.07008e-005 -1.8127 -1.216 2.2227 4.0396e-005 4.07211e-006 -3.60415e-005 -0.9571 1.114 1.7695 3.23025e-016 3.97569e-016 -7.95139e-016 -4.12461 0.487011 4.1451 5.85873e-005 -1.28047e-005 -1.36432e-005 -3.4052 -1.454 2.7682 4.47191e-008 -2.9553e-006 -6.38426e-006 -1.4531 -1.795 1.2713 -3.50753e-005 -1.47881e-005 2.03375e-005 -5.6954 0.21 2.1184 2.32751e-005 -1.14098e-005 -5.87099e-006 -3.9766 -1.54 2.3863 -6.61001e-005 5.63325e-006 1.46353e-006 -1.4042 -1.926 1.125 -3.42718e-005 3.2938e-006 1.01433e-005 -2.0956 0.66 -0.3894 3.23025e-016 3.97569e-016 -7.95139e-016 -5.03951 -0.0899891 2.4971 3.85394e-005 -6.52788e-006 -1.3864e-005 -3.7921 -1.55201 1.4806 -3.2492e-005 1.04237e-005 -1.36199e-005 -1.4655 -1.808 0.9609 2.28192e-005 4.47882e-006 3.8304e-005 -4.91411 -1.26899 0.359202 3.09898e-005 1.87944e-005 -2.38145e-005 -3.1477 -1.68501 0.846198 -1.95673e-005 -2.06667e-005 -1.45956e-005 -0.805497 -1.585 0.7955 -3.94133e-005 8.21753e-006 9.14776e-006 8.36699 -8.2066 0.5982 -2.49995 -1.93589 -1.1583 2.1923 -43.463 -0.4932 0.0135417 3.39705 0.179638 0.733301 -45.8593 -2.6451 2.31609 -1.38165 0.105902 -8.367 -8.2066 0.5982 -4.43579 1.77999 -0.455298 -2.1923 -43.463 -0.4931 0.00362126 -0.290343 0.115838 -0.733302 -45.8594 -2.6451 4.39226 -1.42735 -0.417529 
5.68436 103.728 -2.95441 0.157253 -0.127297 1.61392 1.09472e-007 -1.18599 -1.5018 0.33926 0.0282051 0.378032 -2.33417e-007 9.964 0.2134 0.678323 0.0586733 0.755879 -2.61667e-008 13.134 -3.2573 0.678323 0.0586733 0.75588 7.02574e-007 20.686 -1.6905 0.0701573 -0.736165 -2.23323 -4.07205e-007 7.238 -0.1237 0.720723 -0.00188488 -1.11446 1.7069 20.075 5.0056 0.78555 -0.0161081 -0.343322 13.6458 -0.0470042 -4.849 -75.5738 5.1112 4.82136 28.3255 -0.975897 2.2888 -9.09457 1.98686 -19.0455 22.1583 -0.52999 10.8316 0.412683 2.04001 1.51308 0.786005 0.111997 2.5817 5.52312e-005 2.94186e-005 -1.13255e-006 0.360099 -0.877999 4.2331 1.33651e-005 -5.1351e-007 1.99768e-005 1.81269 -1.21601 2.2227 -1.91312e-005 7.92188e-006 -2.39375e-005 0.9571 1.114 1.7695 -2.98177e-015 0 1.59028e-015 4.1246 0.486994 4.1451 5.8607e-006 -2.75341e-006 -2.43373e-005 3.4052 -1.45401 2.7682 1.04507e-005 -1.52723e-005 1.7883e-005 1.4531 -1.79499 1.2713 -4.83044e-005 -9.17595e-006 1.76612e-006 5.6954 0.209986 2.1184 -2.72912e-005 -2.48637e-005 9.8845e-007 3.9766 -1.53999 2.3863 -5.40978e-005 -1.11736e-005 3.54631e-005 1.4042 -1.926 1.125 6.87218e-005 -1.72148e-005 -6.62829e-005 2.0956 0.66 -0.3894 -2.98177e-015 0 1.59028e-015 5.0395 -0.090012 2.4971 -2.09125e-005 2.84896e-005 -3.0808e-005 3.7921 -1.55199 1.4806 8.24864e-005 -2.7333e-005 5.28626e-005 1.4655 -1.808 0.9609 -2.40398e-005 8.84743e-006 -1.69157e-005 4.9141 -1.269 0.3591 -1.99489e-005 5.94144e-006 -9.38282e-007 3.1477 -1.68501 0.846201 -1.18701e-005 -1.69456e-005 -2.92636e-005 0.805501 -1.58501 0.795499 -1.83917e-005 -1.58708e-005 1.38406e-005 -1.7069 20.075 5.0056 -0.687524 0.00819721 -0.80462 -13.6458 -0.0470113 -4.849 70.8561 -6.64661 -5.91358 -28.3255 -0.975877 2.2888 2.1537 -0.808579 6.58302 -22.1583 -0.530007 10.8316 -0.533805 13.7296 -1.62947 -0.786001 0.112004 2.5817 0.000128223 -5.13344e-005 -8.84546e-006 -0.360107 -0.877994 4.23311 -4.75554e-005 1.12163e-005 1.19474e-005 -1.81269 -1.216 2.2227 4.1986e-005 7.25072e-006 -2.96752e-005 -0.9571 1.114 1.7695 7.41599e-015 3.18055e-015 6.52262e-016 -4.1246 0.487011 4.1451 5.19116e-005 -2.05775e-005 -1.55133e-005 -3.4052 -1.45401 2.7682 -2.14016e-006 -4.22286e-007 -7.09341e-006 -1.4531 -1.795 1.2713 -5.64067e-005 -1.3233e-005 2.09393e-005 -5.6954 0.210001 2.1184 3.05388e-005 1.223e-005 -5.00286e-006 -3.9766 -1.54 2.3863 -6.87009e-005 5.81684e-006 2.71341e-006 -1.4042 -1.926 1.125 -4.03337e-005 1.14868e-005 7.78969e-006 -2.0956 0.66 -0.3894 7.41599e-015 3.18055e-015 6.52262e-016 -5.03951 -0.0899884 2.4971 2.27367e-005 2.90877e-006 -9.90907e-006 -3.7921 -1.55201 1.4806 -2.5355e-005 1.95758e-005 -9.54115e-006 -1.4655 -1.808 0.960901 2.21559e-005 6.24312e-006 3.32091e-005 -4.91411 -1.26899 0.359203 3.72581e-005 3.14047e-005 -2.11938e-005 -3.1477 -1.68501 0.846199 -1.29082e-005 -8.31328e-006 -1.00838e-005 -0.805503 -1.585 0.7955 -3.64769e-005 1.39314e-005 1.08293e-005 8.367 -8.2066 0.5982 -2.69891 -1.82438 -1.97809 2.1923 -43.4631 -0.4932 0.0276755 3.25713 0.191349 0.7333 -45.8593 -2.6451 2.31802 -1.22469 0.126862 -8.367 -8.20659 0.598201 -4.5867 1.95386 -0.689672 -2.1923 -43.4631 -0.4931 0.0102553 -0.278303 0.126123 -0.7333 -45.8593 -2.6451 4.51446 -1.53549 -0.894963 
5.89651 103.699 -3.14645 0.181384 -0.370702 2.11042 -1.41305e-007 -1.186 -1.5018 0.322276 0.0707573 0.724443 1.73559e-007 9.964 0.2134 0.643631 0.145586 1.44848 1.98943e-007 13.134 -3.2573 0.643631 0.145586 1.44848 1.50583e-007 20.686 -1.6905 0.104216 -1.11621 -3.83976 -1.96098e-007 7.23801 -0.1237 1.09346 -0.094648 -1.90883 1.7069 20.075 5.0056 1.08271 -0.0391817 -0.790153 13.6458 -0.0470136 -4.849 -75.3551 4.96187 4.90617 28.3255 -0.975894 2.2888 -9.10559 2.09654 -18.0247 22.1583 -0.530001 10.8316 0.72385 3.3017 2.3771 0.786004 0.111998 2.5817 4.25088e-005 1.62729e-005 1.15738e-006 0.360097 -0.877999 4.2331 4.3541e-006 1.03411e-006 2.03085e-005 1.8127 -1.21601 2.2227 -3.45188e-005 1.25543e-005 -1.92629e-005 0.9571 1.114 1.7695 -9.93923e-017 1.59028e-015 -0 4.1246 0.486994 4.1451 -1.33896e-005 -9.76804e-007 -1.67079e-005 3.4052 -1.45401 2.7682 2.41266e-005 -1.4203e-005 2.14365e-005 1.4531 -1.79499 1.2713 -4.75752e-005 -1.37247e-005 9.48805e-006 5.6954 0.209989 2.1184 -6.82251e-005 -5.84672e-005 3.76342e-006 3.9766 -1.53999 2.3863 -4.36428e-005 -2.24938e-005 4.15632e-005 1.4042 -1.926 1.125 5.31858e-005 -2.22458e-005 -5.79916e-005 2.0956 0.66 -0.3894 -9.93923e-017 1.59028e-015 -0 5.0395 -0.0900128 2.4971 -2.51666e-005 2.9951e-005 -2.81292e-005 3.7921 -1.55199 1.4806 9.7309e-005 -3.61031e-005 6.09179e-005 1.4655 -1.808 0.960899 -1.49216e-007 1.29482e-006 1.10237e-006 4.91411 -1.269 0.3591 -2.4133e-005 -4.06043e-006 -2.35588e-006 3.1477 -1.685 0.8462 -2.58156e-005 -2.86333e-005 -2.15006e-005 0.8055 -1.58501 0.7955 -2.26479e-005 -1.8798e-005 1.07677e-005 -1.7069 20.075 5.0056 -1.92436 0.012962 -1.41217 -13.6458 -0.047005 -4.849 66.5818 -9.45213 -2.778 -28.3255 -0.975877 2.2888 2.75971 -5.51741 -0.437165 -22.1583 -0.530004 10.8316 0.170522 12.1259 -3.27216 -0.786001 0.112006 2.5817 0.000126842 -9.43963e-005 -5.143e-006 -0.360104 -0.877991 4.2331 -6.11657e-005 1.26567e-005 2.0461e-005 -1.81269 -1.216 2.2227 3.05475e-005 -4.26038e-008 -3.2547e-005 -0.9571 1.114 1.7695 -3.37934e-015 1.98785e-016 -7.95139e-016 -4.12461 0.487013 4.1451 3.11231e-005 -1.95464e-005 -1.42777e-005 -3.4052 -1.45401 2.7682 1.34976e-005 5.99353e-007 -1.0569e-005 -1.4531 -1.795 1.2713 -7.20703e-005 -9.98442e-006 2.51745e-005 -5.69541 0.210002 2.1184 3.08912e-006 2.19392e-005 -1.80808e-006 -3.9766 -1.54 2.3863 -7.4655e-005 1.74896e-005 7.48854e-006 -1.4042 -1.926 1.125 -3.10863e-005 1.69634e-005 2.10165e-005 -2.0956 0.66 -0.3894 -3.37934e-015 1.98785e-016 -7.95139e-016 -5.03951 -0.0899853 2.4971 7.24335e-006 1.74738e-005 -1.01728e-005 -3.7921 -1.55201 1.4806 -2.91403e-006 2.21766e-005 -1.50525e-005 -1.4655 -1.808 0.960901 1.30399e-005 3.94618e-006 2.55716e-005 -4.91411 -1.26899 0.359202 -7.39973e-006 5.39088e-005 -2.85287e-005 -3.1477 -1.68501 0.846199 -1.8842e-005 -5.22968e-006 9.94316e-007 -0.8055 -1.585 0.7955 -4.06176e-005 1.61031e-005 2.627e-005 8.36699 -8.2066 0.5982 -2.87934 -1.59793 -2.14067 2.1923 -43.463 -0.4932 0.0588958 3.21376 0.232819 0.733302 -45.8593 -2.6451 2.55598 -1.12753 -0.291647 -8.36701 -8.2066 0.5982 -4.72805 2.16953 -0.89598 -2.1923 -43.463 -0.4931 0.0274286 -0.220876 0.137592 -0.7333 -45.8594 -2.6451 4.57638 -1.55999 -1.14864 
